<svg xmlns="http://www.w3.org/2000/svg" width="24" height="24" viewBox="0 0 24 24"><path d="M18 8.101h-4v-.875h4v.875zm.84 6.125c-.77 2.258-5.949 2.966-5.949-1.56 0-4.583 5.508-4.377 6.053-.872.045.295.062.693.055 1.249h-4.41c-.104 1.715 1.76 1.932 2.404 1.184h1.847zm-4.211-2.333h2.624c-.115-1.687-2.36-1.81-2.624 0zm-5.858 4.076h-3.771v-8.73h4.056c3.194.047 3.255 3.176 1.587 4.028 2.019.735 2.086 4.702-1.872 4.702zm-1.896-5.134h1.965c1.464 0 1.696-1.859-.182-1.859h-1.783v1.859zm1.854 1.454h-1.854v1.947h1.824c1.782-.001 1.673-1.947.03-1.947zm3.271-10.289c5.514 0 10 4.486 10 10s-4.486 10-10 10-10-4.486-10-10 4.486-10 10-10zm0-2c-6.627 0-12 5.373-12 12s5.373 12 12 12 12-5.373 12-12-5.373-12-12-12z"/></svg>