<svg xmlns="http://www.w3.org/2000/svg" width="24" height="24" viewBox="0 0 24 24"><path d="M12 2c5.514 0 10 4.486 10 10s-4.486 10-10 10-10-4.486-10-10 4.486-10 10-10zm0-2c-6.627 0-12 5.373-12 12s5.373 12 12 12 12-5.373 12-12-5.373-12-12-12zm7 9h-2v2h-1v-2h-2v-1h2v-2h1v2h2v1zm-5.376 6.304c0 1.216-1.109 2.696-3.902 2.696-2.043 0-3.746-.881-3.746-2.363 0-1.144.725-2.628 4.107-2.628-.502-.41-.625-.982-.318-1.603-1.982 0-2.996-1.165-2.996-2.644 0-1.447 1.076-2.762 3.271-2.762h3.516l-.785.825h-.924c.65.373.998 1.141.998 1.988 0 .777-.428 1.407-1.039 1.879-1.084.838-.807 1.306.33 2.134 1.119.839 1.488 1.486 1.488 2.478zm-2.193-6.439c-.162-1.244-.973-2.265-1.92-2.293-.947-.028-1.584.924-1.42 2.169.164 1.244 1.064 2.114 2.012 2.142s1.492-.773 1.328-2.018zm.978 6.564c0-1.023-.934-1.999-2.5-1.999-1.412-.016-2.609.892-2.609 1.944 0 1.074 1.02 1.967 2.432 1.967 1.804 0 2.677-.839 2.677-1.912z"/></svg>