<svg xmlns="http://www.w3.org/2000/svg" width="24" height="24" viewBox="0 0 24 24"><path d="M8.326 6h.721l.493 1.851.458-1.851h.727l-.832 2.752v1.878h-.716v-1.878l-.851-2.752zm3.297 1.187c-.56 0-.931.37-.931.917v1.675c0 .602.314.916.931.916.511 0 .913-.342.913-.916v-1.675c0-.535-.398-.917-.913-.917zm.266 2.563c0 .186-.095.323-.266.323-.176 0-.277-.144-.277-.323v-1.589c0-.187.086-.326.265-.326.194 0 .278.134.278.326v1.589zm2.364-2.535v2.593c-.077.097-.25.256-.374.256-.135 0-.169-.093-.169-.23v-2.619h-.635v2.855c0 .337.103.61.443.61.192 0 .459-.1.734-.426v.377h.635v-3.416h-.634zm1.101 6.929c-.224 0-.271.158-.271.382v.329h.535v-.329c.001-.221-.046-.382-.264-.382zm-2.351.02l-.125.099v2.027l.144.115c.099.05.242.054.31-.034.034-.046.052-.121.052-.224v-1.68c0-.11-.021-.193-.064-.25-.074-.096-.211-.107-.317-.053zm2.413-2.598c-1.301-.089-5.533-.088-6.833 0-1.406.097-1.572.947-1.583 3.184.011 2.233.175 3.087 1.583 3.184 1.3.088 5.532.089 6.833 0 1.407-.096 1.573-.946 1.584-3.184-.011-2.233-.175-3.087-1.584-3.184zm-6.162 5.344h-.681v-3.77h-.705v-.64h2.091v.64h-.705v3.77zm2.424 0h-.605v-.359c-.111.132-.228.233-.348.302-.326.187-.773.183-.773-.477v-2.72h.604v2.494c0 .131.032.219.161.219.118 0 .282-.151.355-.244v-2.47h.605v3.255zm2.328-.675c0 .403-.15.716-.553.716-.222 0-.406-.081-.575-.292v.25h-.61v-4.409h.61v1.42c.137-.167.322-.304.538-.304.443 0 .59.374.59.815v1.804zm2.235-.876h-1.157v.614c0 .244.021.455.265.455.255 0 .271-.172.271-.455v-.226h.622v.244c0 .627-.269 1.007-.906 1.007-.577 0-.873-.421-.873-1.007v-1.46c0-.565.373-.957.919-.957.58 0 .86.369.86.957v.828zm-4.241-13.359c5.514 0 10 4.486 10 10s-4.486 10-10 10-10-4.486-10-10 4.486-10 10-10zm0-2c-6.627 0-12 5.373-12 12s5.373 12 12 12 12-5.373 12-12-5.373-12-12-12z"/></svg>